# xmcd
#
# Track frame offsets:
#	150
#	13136
#	27062
#	40861
#	54977
#	71306
#	84912
#	97474
#	115674
#	128366
#	142765
#	157310
#
# Disc length: 2321 seconds
#
# Revision: 1
# Processed by: cddbd v1.5.2PL0 Copyright (c) Steve Scherf et al.
# Submitted via: audiograbber 1.83.01
#
DISCID=91090f0c
DTITLE=Maibrit Post - Perler Fra Posten
DYEAR=2007
DGENRE=Dansktop
TTITLE0=I Kælighedens navn (2007)
TTITLE1=Jeg vil danse natten lang (2007)
TTITLE2=Et flyvende tæppe (2007)
TTITLE3=Tænd et lys (2007)
TTITLE4=En tur i det blå (2007)
TTITLE5=Før mig frem (2007)
TTITLE6=Der er ingen der kender dagen (2007)
TTITLE7=Klaus Jørgen (2007)
TTITLE8=Kolonihave hygge (2007)
TTITLE9=Du skal ha et kys (2007)
TTITLE10=Jeg har puset mine briller (2007)
TTITLE11=You can count on me forever (2007)
EXTD=
EXTT0=
EXTT1=
EXTT2=
EXTT3=
EXTT4=
EXTT5=
EXTT6=
EXTT7=
EXTT8=
EXTT9=
EXTT10=
EXTT11=
PLAYORDER=
